/* XPM */
static char * theme_xpm[] = {
"20 20 17 1",
" 	c None",
".	c #050505",
"+	c #BDBDBD",
"@	c #6F6F6F",
"#	c #4B4B4B",
"$	c #D1D1D1",
"%	c #383838",
"&	c #7A7A7A",
"*	c #DEDEDE",
"=	c #838383",
"-	c #242424",
";	c #636363",
">	c #8E8E8E",
",	c #E6E6E6",
"'	c #171717",
")	c #A3A3A3",
"!	c #FAFAFA",
"                    ",
"                    ",
"                    ",
"        ;           ",
"      ->)#          ",
"    #)*$);          ",
" @+,!!,)@= '        ",
" #!!,$*#=).-#       ",
"  +!@@*$)>.%#@      ",
"  #!!!!*;='%#;##    ",
"   >,>);#@-@*)%'... ",
"    $*))+#%#&;;;... ",
"    '$!!+'#+);%+..  ",
"      @## %@)+'-.   ",
"          -#%&%.    ",
"          '-...     ",
"            ..      ",
"                    ",
"                    ",
"                    "};
