/* XPM */
static char * xchat_mini_xpm[] = {
"16 16 13 1",
" 	c None",
".	c #040404",
"+	c #373737",
"@	c #6C6C6C",
"#	c #9E9E9E",
"$	c #B7B7B7",
"%	c #C7C7C7",
"&	c #D2D2D2",
"*	c #DCDCDC",
"=	c #E4E4E4",
"-	c #FAFAFA",
";	c #5C5C5C",
">	c #8C8C8C",
"                ",
"    +;@@@+.     ",
"  +#=-----&;.   ",
" +==-------=@.  ",
" $-&-*%=$%-##+. ",
".=->=#>>#*-#$;. ",
".=->=#&>$*$$%;. ",
" #-*-%-=#>$%%+. ",
" +*--------=@.. ",
"  +*------%+..  ",
"   +#----&....  ",
"    .+$=--;...  ",
"     ..+;#%+..  ",
"       ....+..  ",
"          ...   ",
"                "};
