/* XPM */
static char * xchat_icon_xpm[] = {
"48 48 19 1",
" 	c None",
".	c #000000",
"+	c #FCFCFD",
"@	c #FFFFFF",
"#	c #ECECEE",
"$	c #CECFD0",
"%	c #E6E6E6",
"&	c #DEDEE1",
"*	c #799DA4",
"=	c #6F98A0",
"-	c #A4A7A9",
";	c #BBBCBE",
">	c #61868D",
",	c #87888A",
"'	c #517077",
")	c #536265",
"!	c #2F373B",
"~	c #355055",
"{	c #4F595D",
"................................................",
".++++++++++++++++++++++++++++++++++++++++++++++@",
".++++++++++++++++++++++++++++++++++++++++++++++@",
".++++++++++++++++++++++++++++++++++++++++++++++@",
".++++++++++++++++++++++++++++++++++++++++++++++@",
".++++++++++++++++++++++++++++++++++++++++++++++@",
".++++++++++++++++++++++++++++++++++++++++++++++@",
".++++++++++++++++++++++++++++++++++++++++++++++@",
".++++++++++++++++++++++++++++++++++++++++++++++@",
".++++###+#++++++++++#+###++++++++++++++++++++++@",
".#$$$$$%###++++++##%$$$&%#+++++++++++++++++++++@",
".+****=$#%###+##+#&=*==-%###+++++++++++++++++++@",
".+$*====&&&%%####%**===&&##++++++++++++++++++++@",
".+#-====*&&&%%%%&;=>==-&&%%##++++++++++++++++++@",
".+#%=>>=>;$$&&,'->=>>*$$&%%#+#++++++++++##+++++@",
".+#%;=>>>>;$$$)!'>>>=;;$$&%##++++++++#&-$#####+@",
".+#%&*>>>>=;;$)!'>>'*;;$$&%%#%########;!'%#####@",
".+#%&$>>>>>--;)!'>'=-;;$$$&#########%%-!)&&%###@",
".+#%&$->)~'>-*~!~'>',*;;$&&&%---;#&%&&-!)&$$&##@",
".++%%;~!~!~!)>~~'~!!!!);;$&~!!!!!!-$$)!!!!!!-&&@",
".#+%$~!~'~~~~'~!~!{'){!,;$$!{,--,!!;$,{!!){)-&%@",
".+#&,!);=''~~'~!~,,,,,!{;$$;$$$;;,!);;,!);;;$$&@",
".##%!!-;->''''~!),,,--!!;;;$$$;$;,!);-,!{;;;$&&@",
".+#-!{;;-*''''~!),,,-,!!;;;$,,{{!!!{-;,!{-;;;$&@",
".+#-!)$;-*>''~~~{,,,--!!;;;)!!!!{{!{--,!{;;;$&&@",
".+%-!);;->''''~!{,,,--!!;;)!!,;--,!{--,!{-;;$&%@",
".+%-!{;;*'''''~!~>,---!!-;!!,--;-,!{--,!{;;$;&&@",
".+#&!!-*>'''''~~{',,--!!;;!!;;---,!{--,!{;;;$&%@",
".+#&,!)=>'''~'~!~',,--!!-;!!,-;--!!{--,!!;;$$&%@",
".#%&$!!~''~!~>~~~)',--!!;;,!!,,,!!!{--;!!,,,-&&@",
".+#&$;~!~!~~',~!~'',--!!;-;{!!!!{,!{;;;,!!!!-&%@",
".+%%$>>''~,*-*=>'''),--;;;;;-,,-;;;;;;$;;-,-$&%@",
".+%%-=>''=*-,--*'>'>'-;;;;;;;;;;$;;;$;$$$$$&$&%@",
".+#;=>>>=-------*''>',;;;$$$$$$$$$$$$$$$&$&&&%#@",
".+%*=>>>--;-;;;;;=>'>',;$$$$&&&$&$&&&&&&&&&%%%#@",
".+;==>>-;;;;;$;$;;>>,>,-$$&$&&&%&&&%%%%%###%##+@",
".&====*$;;$$$$$&$$->>>>,$$&&%%%%############+#+@",
".+#%&$$$$$$$&&&&&&&$$$$&$&%%######+##++++++#+++@",
".+##&%&$&$&%%%#%%&&&$$$$&%%##++++++++++++++++++@",
".++#%%%&&%%##+#+##%%%&%%%%##+#+++++++++++++++++@",
".+####%##%##++++#+#%#%%%##+#+++++++++++++++++++@",
".+++#+###++#++++++++######+++++++++++++++++++++@",
".+++#+++++++++++++#++++#++#++++++++++++++++++++@",
".+++++++#++++++++++++#+++++++++++++++++++++++++@",
".+++++++++++++++++++++++++++++++++++++++++++++@@",
".+++++++++++++++++++++++++++++++++++++++++++++@@",
".+++++++++++++++++++++++++++++++++++++++++++++@@",
".@@@@@@@@@@@@@@@@@@@@@@@@@@@@@@@@@@@@@@@@@@@@@@@"};
